<?xml version="1.0" encoding="UTF-8" standalone="no"?>
<svg
   id="Layer_2"
   data-name="Layer 2"
   viewBox="0 0 920.55 921.26"
   version="1.1"
   sodipodi:docname="logo.svg"
   inkscape:version="1.3 (0e150ed6c4, 2023-07-21)"
   xmlns:inkscape="http://www.inkscape.org/namespaces/inkscape"
   xmlns:sodipodi="http://sodipodi.sourceforge.net/DTD/sodipodi-0.dtd"
   xmlns="http://www.w3.org/2000/svg"
   xmlns:svg="http://www.w3.org/2000/svg">
  <sodipodi:namedview
     id="namedview2"
     pagecolor="#ffffff"
     bordercolor="#000000"
     borderopacity="0.25"
     inkscape:showpageshadow="2"
     inkscape:pageopacity="0.0"
     inkscape:pagecheckerboard="0"
     inkscape:deskcolor="#d1d1d1"
     showguides="true"
     inkscape:zoom="0.56081513"
     inkscape:cx="272.81718"
     inkscape:cy="375.34651"
     inkscape:window-width="1920"
     inkscape:window-height="1001"
     inkscape:window-x="-9"
     inkscape:window-y="-9"
     inkscape:window-maximized="1"
     inkscape:current-layer="g2" />
  <defs
     id="defs1">
    <style
       id="style1">&#10;      .cls-1 {&#10;        fill: #48a3c6;&#10;      }&#10;&#10;      .cls-1, .cls-2 {&#10;        fill-rule: evenodd;&#10;      }&#10;&#10;      .cls-2 {&#10;        fill: #fefefe;&#10;        stroke: #48a3c6;&#10;        stroke-width: 20;&#10;      }&#10;    </style>
  </defs>
  <g
     id="Layer_1-2"
     data-name="Layer 1">
    <g
       id="g2">
      <path
         class="cls-1"
         d="m593.27,789.8c-33.66,13.7-69.92,22.44-107.83,25.16v106.3c37.32-2.01,73.46-8.62,107.83-19.02,39.8-12.05,77.36-29.41,111.85-51.14,123.9-78.19,207.87-213.66,214.96-369.21.35-7.09.47-14.17.47-21.26,0-29.53-2.83-58.46-8.15-86.57-24.21-127.68-101.1-236.81-207.28-303.78v133.94c47.48,45.47,82.32,104.06,98.74,169.84h-210.59V19.02c-34.37-10.39-70.51-16.89-107.83-19.02v481.89h328.46c-5.43,92.24-46.18,175.04-108.78,235.16-32.13,30.83-70.04,55.63-111.85,72.76h0Z"
         id="path1" />
      <path
         style="fill:#fefefe;fill-opacity:1;stroke:#48a3c6;stroke-width:21.6902;stroke-dasharray:none;stroke-opacity:1"
         d="M 125.8832,466.6865 25.264187,466.03375 c 0,0 1.853017,-32.49888 3.920221,-48.62953 2.232658,-17.42173 4.859301,-33.55427 9.147183,-51.89328 4.74677,-20.30165 11.674463,-40.11426 19.601105,-59.39984 6.511388,-15.84227 14.667797,-30.97926 22.867955,-46.01856 7.334482,-13.45163 14.907134,-26.81926 23.521339,-39.49111 10.42589,-15.33695 21.92209,-29.96376 33.97524,-44.06031 8.95576,-10.47405 18.34332,-20.62522 28.4216,-30.0263 14.02297,-13.08071 29.07736,-25.05831 44.42918,-36.55375 10.2232,-7.65513 20.81411,-14.840623 31.68845,-21.540606 13.15262,-8.103693 26.61679,-15.758994 40.50895,-22.51972 16.89125,-8.220256 34.19597,-15.703447 51.94293,-21.866975 17.71773,-6.153375 35.91247,-10.97563 54.22972,-15.013147 14.98191,-3.302336 30.17128,-5.722553 45.40922,-7.506574 7.80591,-0.913897 23.52133,-1.631864 23.52133,-1.631864 l 1.63343,94.648096 c 0,0 -32.33763,1.13285 -48.34939,3.26373 -12.65911,1.68471 -25.24723,4.15183 -37.56879,7.50658 -15.35075,4.17951 -30.43424,9.46095 -45.08254,15.6659 -12.2402,5.18489 -24.17003,11.18093 -35.60867,17.9505 -12.73393,7.53613 -24.98824,15.94798 -36.58873,25.13069 -11.41948,9.03944 -22.25853,18.86699 -32.34183,29.37355 -9.52394,9.92372 -18.12341,20.721 -26.46149,31.65816 -8.10806,10.63543 -15.99623,21.49207 -22.86796,32.96365 -5.65201,9.43541 -10.55107,19.32811 -15.0275,29.37355 -6.44853,14.47093 -12.08706,29.32209 -16.98763,44.38669 -4.91499,15.10895 -9.50356,30.40009 -12.41403,46.01856 -3.04619,16.34672 -4.49547,32.99715 -5.22696,49.60867 -0.28242,6.41338 0.32668,19.25599 0.32668,19.25599 z"
         id="path3"
         sodipodi:nodetypes="ccasaaaaaaaaaaaccaaaaaaaaaaaac" />
      <path
         style="fill:#fcfcfc;fill-opacity:1;stroke:#48a3c6;stroke-width:22.8518;stroke-dasharray:none;stroke-opacity:1"
         d="m 239.03149,311.18824 c 0,0 13.63453,-14.36572 20.78788,-21.31485 9.82656,-9.54603 20.05434,-18.80438 30.38227,-27.97572 6.56658,-5.83122 12.01859,-10.53016 20.25485,-15.09802 9.74643,-5.4054 14.84687,-8.45353 20.78787,-11.54553 5.74819,-2.99165 9.59441,-6.21684 9.59441,-6.21684 l 0.53303,671.41749 c 0,0 -19.27359,-5.43156 -28.78322,-8.43712 -9.68645,-3.06146 -19.38152,-6.14368 -28.7832,-9.76931 -8.72622,-3.36514 -17.02031,-7.45983 -25.58508,-11.10148 -5.66188,-2.40737 -17.05672,-7.10495 -17.05672,-7.10495 l -2.13209,-0.88812 z"
         id="path2"
         sodipodi:nodetypes="cssssccsssccc" />
    </g>
  </g>
</svg>
